<?xml version="1.0" standalone="no"?>
<!DOCTYPE svg PUBLIC "-//W3C//DTD SVG 20010904//EN"
 "http://www.w3.org/TR/2001/REC-SVG-20010904/DTD/svg10.dtd">
<svg version="1.0" xmlns="http://www.w3.org/2000/svg"
 width="700.000000pt" height="700.000000pt" viewBox="0 0 700.000000 700.000000"
 preserveAspectRatio="xMidYMid meet">
<metadata>
Created by potrace 1.11, written by Peter Selinger 2001-2013
</metadata>
<g transform="translate(0.000000,700.000000) scale(0.100000,-0.100000)"
fill="#000000" stroke="none">
<path d="M5846 6538 c-196 -255 -362 -470 -369 -478 -7 -8 -43 -55 -81 -105
-38 -49 -79 -102 -90 -116 -12 -14 -32 -40 -46 -59 -14 -18 -83 -108 -153
-199 -71 -91 -137 -177 -148 -191 -10 -14 -47 -61 -82 -106 -34 -44 -150 -194
-257 -333 -177 -229 -293 -380 -580 -751 -53 -69 -281 -363 -506 -655 -225
-291 -433 -560 -461 -596 -28 -36 -99 -129 -158 -205 -58 -76 -118 -154 -133
-173 -26 -33 -570 -736 -615 -795 -12 -16 -94 -122 -181 -235 -88 -113 -222
-287 -298 -386 -77 -99 -145 -187 -151 -195 -7 -8 -26 -33 -42 -55 -17 -22
-35 -46 -42 -55 -19 -23 -412 -531 -436 -564 -12 -15 -33 -42 -47 -60 -14 -17
-54 -69 -90 -116 -35 -47 -68 -91 -73 -98 -8 -9 73 -12 396 -12 l406 0 452
587 c249 324 474 615 499 648 26 33 86 112 135 175 49 63 109 142 135 175 87
113 517 671 1201 1560 616 800 1108 1439 1290 1675 36 47 161 209 277 360 117
151 254 329 304 395 144 185 271 351 350 455 40 52 75 97 78 100 3 3 26 32 51
65 39 52 169 222 192 250 4 6 37 48 73 95 36 47 71 92 77 100 7 8 41 53 77
100 35 47 66 87 69 90 3 3 34 42 69 88 l63 82 -399 0 -399 0 -357 -462z"/>
<path d="M759 6246 c0 -1 -3 -12 -5 -26 -4 -24 4 -30 108 -79 62 -29 130 -60
151 -69 l37 -17 0 -913 0 -912 -22 -9 c-31 -12 -262 -122 -267 -127 -2 -2 -5
-15 -6 -29 -3 -23 0 -25 38 -26 55 0 1071 0 1118 0 33 1 36 3 33 27 -1 14 -4
27 -6 29 -2 2 -55 31 -118 65 -63 34 -119 66 -124 70 -10 10 -13 836 -3 846 5
5 645 9 762 5 21 -1 21 -5 21 -425 l0 -424 -131 -70 c-112 -59 -130 -72 -133
-95 -3 -24 0 -27 25 -27 39 -1 1056 -1 1119 -1 42 1 50 4 49 19 -2 32 -16 42
-156 109 l-139 66 0 909 0 909 144 69 c139 66 166 88 147 117 -4 6 -233 9
-596 9 l-590 -1 -3 -26 c-3 -23 6 -30 100 -79 57 -29 117 -62 133 -72 l30 -18
1 -390 0 -390 -25 -1 c-75 -3 -738 -4 -751 -1 -13 3 -15 54 -14 393 1 214 3
391 5 393 2 1 56 31 119 65 63 35 119 67 124 72 11 10 16 48 7 51 -6 1 -1180
5 -1182 4z"/>
</g>
</svg>
