<?xml version="1.0" encoding="UTF-8" standalone="no"?>
<svg width="20px" height="20px" viewBox="0 0 20 20" version="1.1" xmlns="http://www.w3.org/2000/svg" xmlns:xlink="http://www.w3.org/1999/xlink">
    <!-- Generator: Sketch 45 (43475) - http://www.bohemiancoding.com/sketch -->
    <title>icons/about</title>
    <desc>Created with Sketch.</desc>
    <defs></defs>
    <g id="Symbols" stroke="none" stroke-width="1" fill="none" fill-rule="evenodd">
        <g id="icons/about" fill="#F07662">
            <g id="Page-1" transform="translate(5.000000, 3.000000)">
                <path d="M0.6362,4.6729 C0.6362,3.9709 0.7412,3.3319 0.9522,2.7579 C1.1622,2.1839 1.4692,1.6919 1.8712,1.2819 C2.2732,0.8749 2.7582,0.5589 3.3262,0.3349 C3.8952,0.1119 4.5302,-0.0001 5.2322,-0.0001 C5.8192,-0.0001 6.3652,0.0859 6.8692,0.2579 C7.3742,0.4309 7.8142,0.6799 8.1912,1.0059 C8.5672,1.3309 8.8652,1.7369 9.0812,2.2219 C9.2992,2.7069 9.4072,3.2559 9.4072,3.8689 C9.4072,4.3169 9.3602,4.7019 9.2632,5.0269 C9.1682,5.3539 9.0402,5.6339 8.8812,5.8699 C8.7212,6.1069 8.5392,6.3179 8.3352,6.5019 C8.1302,6.6879 7.9262,6.8689 7.7222,7.0479 C7.4792,7.2529 7.2562,7.4489 7.0522,7.6419 C6.8472,7.8329 6.6682,8.0479 6.5152,8.2819 C6.3622,8.5199 6.2432,8.7969 6.1612,9.1149 C6.0782,9.4359 6.0372,9.8249 6.0372,10.2849 L3.9682,10.2849 C3.9682,9.7239 3.9972,9.2479 4.0542,8.8579 C4.1122,8.4679 4.2042,8.1269 4.3322,7.8329 C4.4592,7.5399 4.6162,7.2809 4.8012,7.0589 C4.9862,6.8339 5.2072,6.6129 5.4622,6.3969 C5.6662,6.2179 5.8612,6.0529 6.0462,5.8999 C6.2312,5.7459 6.3972,5.5769 6.5442,5.3919 C6.6912,5.2059 6.8062,4.9989 6.8892,4.7699 C6.9712,4.5389 7.0132,4.2639 7.0132,3.9449 C7.0132,3.5629 6.9472,3.2349 6.8122,2.9589 C6.6782,2.6849 6.5152,2.4649 6.3232,2.2979 C6.1332,2.1319 5.9282,2.0109 5.7112,1.9349 C5.4932,1.8579 5.3032,1.8189 5.1362,1.8189 C4.3442,1.8189 3.7612,2.0779 3.3842,2.5959 C3.0072,3.1119 2.8192,3.8049 2.8192,4.6729 L0.6362,4.6729 Z" id="Fill-3"></path>
                <polygon id="Fill-5" points="3.717 14 6.283 14 6.283 12 3.717 12"></polygon>
            </g>
        </g>
    </g>
</svg>