<?xml version="1.0" encoding="UTF-8" standalone="no"?>
<svg width="20px" height="20px" viewBox="0 0 20 20" version="1.1" xmlns="http://www.w3.org/2000/svg" xmlns:xlink="http://www.w3.org/1999/xlink">
    <!-- Generator: Sketch 45 (43475) - http://www.bohemiancoding.com/sketch -->
    <title>icons/cat_Others</title>
    <desc>Created with Sketch.</desc>
    <defs></defs>
    <g id="Symbols" stroke="none" stroke-width="1" fill="none" fill-rule="evenodd">
        <g id="icons/cat_Others" fill="#F07662">
            <path d="M19,6 L1,6 C0.448,6 0,6.447 0,7 L0,19 C0,19.553 0.448,20 1,20 L19,20 C19.552,20 20,19.553 20,19 L20,7 C20,6.447 19.552,6 19,6 L19,6 Z M2,18 L18,18 L18,8 L2,8 L2,18 Z" id="Fill-1"></path>
            <path d="M3,5 L3,4 L17,4 L17,5 L18,5 L18,4 C18,3.447 17.552,3 17,3 L3,3 C2.448,3 2,3.447 2,4 L2,5 L3,5 Z" id="Fill-3"></path>
            <path d="M4,2 L4,1 L16,1 L16,2 L17,2 L17,1 C17,0.447 16.552,0 16,0 L4,0 C3.448,0 3,0.447 3,1 L3,2 L4,2 Z" id="Fill-5"></path>
            <path d="M11,13 C11,13.553 10.552,14 10,14 C9.448,14 9,13.553 9,13 C9,12.447 9.448,12 10,12 C10.552,12 11,12.447 11,13" id="Fill-7"></path>
            <path d="M7,13 C7,13.553 6.552,14 6,14 C5.448,14 5,13.553 5,13 C5,12.447 5.448,12 6,12 C6.552,12 7,12.447 7,13" id="Fill-9"></path>
            <path d="M15,13 C15,13.553 14.552,14 14,14 C13.448,14 13,13.553 13,13 C13,12.447 13.448,12 14,12 C14.552,12 15,12.447 15,13" id="Fill-11"></path>
        </g>
    </g>
</svg>