<?xml version="1.0" encoding="UTF-8" standalone="no"?>
<svg width="20px" height="20px" viewBox="0 0 20 20" version="1.1" xmlns="http://www.w3.org/2000/svg" xmlns:xlink="http://www.w3.org/1999/xlink">
    <!-- Generator: Sketch 45 (43475) - http://www.bohemiancoding.com/sketch -->
    <title>icons/cat_automobile</title>
    <desc>Created with Sketch.</desc>
    <defs></defs>
    <g id="Symbols" stroke="none" stroke-width="1" fill="none" fill-rule="evenodd">
        <g id="icons/cat_automobile" fill="#F07662">
            <path d="M15,11 C15.829,11 17,10.328 17,9.5 C17,9.224 16.776,9 16.5,9 L15,9 C14.448,9 14,9.447 14,10 C14,10.553 14.448,11 15,11 Z M7,13 L13,13 L13,12 L7,12 L7,13 Z M5,11 C5.552,11 6,10.553 6,10 C6,9.447 5.552,9 5,9 L3.5,9 C3.224,9 3,9.224 3,9.5 C3,10.328 4.171,11 5,11 Z M4.48,3.696 L3.708,7.554 C5.082,7.217 7.157,7 9.5,7 C11.836,7 14.916,7.215 16.291,7.55 L15.52,3.696 C15.448,3.339 15.05,3 14.701,3 L12,3 C12,3.553 11.552,4 11,4 L9,4 C8.448,4 8,3.553 8,3 L5.299,3 C4.95,3 4.552,3.339 4.48,3.696 Z M17.477,8.381 C17.793,8.656 18,9.049 18,9.5 L18,17.25 C18,17.666 17.664,18 17.25,18 L15.75,18 C15.336,18 15,17.666 15,17.25 L15,15 L5,15 L5,17.25 C5,17.666 4.664,18 4.25,18 L2.75,18 C2.336,18 2,17.666 2,17.25 L2,9.5 C2,9.049 2.207,8.656 2.523,8.381 L3.5,3.5 C3.666,2.672 4.471,2 5.299,2 L9,2 L11,2 L14.701,2 C15.529,2 16.334,2.672 16.5,3.5 L17.477,8.381 Z" id="Fill-1"></path>
        </g>
    </g>
</svg>