<?xml version="1.0" encoding="UTF-8" standalone="no"?>
<svg width="20px" height="20px" viewBox="0 0 20 20" version="1.1" xmlns="http://www.w3.org/2000/svg" xmlns:xlink="http://www.w3.org/1999/xlink">
    <!-- Generator: Sketch 45 (43475) - http://www.bohemiancoding.com/sketch -->
    <title>icons/cat_pension</title>
    <desc>Created with Sketch.</desc>
    <defs></defs>
    <g id="Symbols" stroke="none" stroke-width="1" fill="none" fill-rule="evenodd">
        <g id="icons/cat_pension" fill="#F07662">
            <path d="M10,0 C4.478,0 0,4.477 0,10 C0,15.523 4.478,20 10,20 C15.522,20 20,15.523 20,10 C20,4.477 15.522,0 10,0 M10,1 C14.962,1 19,5.037 19,10 C19,14.963 14.962,19 10,19 C5.038,19 1,14.963 1,10 C1,5.037 5.038,1 10,1" id="Fill-1"></path>
            <path d="M10,2.5 C5.864,2.5 2.5,5.864 2.5,10 C2.5,14.136 5.864,17.5 10,17.5 C14.136,17.5 17.5,14.136 17.5,10 C17.5,5.864 14.136,2.5 10,2.5 M10,3 C13.865,3 17,6.134 17,10 C17,13.866 13.865,17 10,17 C6.135,17 3,13.866 3,10 C3,6.134 6.135,3 10,3" id="Fill-3"></path>
            <path d="M10.5312,10.748 L10.5312,12.35 C11.0722,12.269 11.3482,12.016 11.3482,11.602 C11.3482,11.221 11.1522,10.968 10.5312,10.748 M9.4472,8.732 L9.4472,7.178 C8.8952,7.258 8.6522,7.535 8.6522,7.903 C8.6522,8.26 8.8142,8.502 9.4472,8.732 M9.9892,5 C10.3232,5 10.5892,5.265 10.5892,5.6 L10.5892,5.76 C11.2102,5.852 11.7632,6.037 12.2602,6.312 C12.4772,6.439 12.6742,6.659 12.6742,7.005 C12.6742,7.441 12.3282,7.777 11.8892,7.777 C11.7522,7.777 11.6142,7.742 11.4872,7.672 C11.1632,7.5 10.8412,7.362 10.5312,7.281 L10.5312,9.032 C12.2812,9.504 13.0312,10.219 13.0312,11.509 C13.0312,12.799 12.0392,13.629 10.5892,13.79 L10.5892,14.4 C10.5892,14.735 10.3232,15 9.9892,15 C9.6542,15 9.3892,14.735 9.3892,14.4 L9.3892,13.778 C8.5722,13.676 7.8012,13.387 7.1202,12.973 C6.8792,12.822 6.7282,12.592 6.7282,12.281 C6.7282,11.832 7.0742,11.498 7.5232,11.498 C7.6742,11.498 7.8362,11.555 7.9722,11.646 C8.4572,11.959 8.9172,12.178 9.4472,12.293 L9.4472,10.461 C7.7892,10.012 6.9712,9.378 6.9712,8.007 C6.9712,6.739 7.9382,5.888 9.3892,5.736 L9.3892,5.6 C9.3892,5.265 9.6542,5 9.9892,5" id="Fill-5"></path>
        </g>
    </g>
</svg>