<?xml version="1.0" encoding="UTF-8" standalone="no"?>
<svg width="20px" height="20px" viewBox="0 0 20 20" version="1.1" xmlns="http://www.w3.org/2000/svg" xmlns:xlink="http://www.w3.org/1999/xlink">
    <!-- Generator: Sketch 45 (43475) - http://www.bohemiancoding.com/sketch -->
    <title>icons/cat_healthcare</title>
    <desc>Created with Sketch.</desc>
    <defs></defs>
    <g id="Symbols" stroke="none" stroke-width="1" fill="none" fill-rule="evenodd">
        <g id="icons/cat_healthcare" fill="#F07662">
            <path d="M10,13.5 C9.989,13.5 9.978,13.5 9.966,13.499 C9.779,13.486 9.614,13.369 9.541,13.197 L6.965,7.188 L5.447,10.223 C5.362,10.392 5.189,10.499 5,10.499 L1,10.5 C0.724,10.5 0.5,10.276 0.5,10 C0.5,9.724 0.724,9.5 1,9.5 L4.691,9.499 L6.553,5.776 C6.64,5.603 6.814,5.503 7.015,5.5 C7.209,5.506 7.383,5.624 7.459,5.803 L10.074,11.904 L12.571,7.743 C12.65,7.61 12.786,7.522 12.939,7.504 C13.088,7.48 13.245,7.537 13.354,7.646 L15.207,9.499 L19,9.5 C19.276,9.5 19.5,9.724 19.5,10 C19.5,10.276 19.276,10.5 19,10.5 L15,10.499 C14.867,10.499 14.74,10.446 14.646,10.353 L13.099,8.807 L10.429,13.257 C10.338,13.408 10.175,13.5 10,13.5 Z" id="Fill-1"></path>
            <path d="M4.0728,8.499 L5.6578,5.329 C5.9198,4.808 6.4658,4.456 7.0438,4.501 C7.6278,4.518 8.1488,4.872 8.3788,5.409 L10.2228,9.713 L11.7138,7.228 C11.9508,6.832 12.3588,6.567 12.8168,6.512 C13.2778,6.454 13.7338,6.612 14.0608,6.939 L15.6208,8.499 L18.6978,8.5 C18.8758,7.99 18.9998,7.446 18.9998,6.875 C18.9998,3.822 17.2018,2 14.1988,2 C12.4418,2 10.7938,3.437 9.9998,4.249 C9.2068,3.437 7.5598,2 5.8018,2 C2.7978,2 0.9998,3.822 0.9998,6.875 C0.9998,7.446 1.1238,7.99 1.3028,8.5 L4.0728,8.499 Z" id="Fill-3"></path>
            <path d="M14.9995,11.499 C14.6025,11.499 14.2205,11.341 13.9395,11.06 L13.2975,10.419 L11.2865,13.771 C11.0145,14.226 10.5245,14.5 10.0005,14.5 C9.9665,14.5 9.9325,14.499 9.8985,14.496 C9.3365,14.458 8.8435,14.108 8.6215,13.591 L6.8955,9.563 L6.3415,10.67 C6.0875,11.178 5.5685,11.499 5.0005,11.499 L3.2485,11.499 C3.2595,11.51 3.2865,11.537 3.2905,11.54 L9.5585,17.811 C9.6785,17.936 9.8385,18 9.9995,18 C10.1615,18 10.3215,17.936 10.4425,17.811 L16.7005,11.561 C16.7055,11.555 16.7405,11.52 16.7605,11.499 L14.9995,11.499 Z" id="Fill-5"></path>
        </g>
    </g>
</svg>