<?xml version="1.0" encoding="UTF-8" standalone="no"?>
<svg width="24px" height="48px" viewBox="0 0 24 48" version="1.1" xmlns="http://www.w3.org/2000/svg" xmlns:xlink="http://www.w3.org/1999/xlink">
    <!-- Generator: Sketch 45 (43475) - http://www.bohemiancoding.com/sketch -->
    <title>icons/character_base</title>
    <desc>Created with Sketch.</desc>
    <defs></defs>
    <g id="Symbols" stroke="none" stroke-width="1" fill="none" fill-rule="evenodd" fill-opacity="0.15">
        <g id="icons/character_base" fill="#FFFFFF">
            <path d="M22,20 C22,18.184 19.292,16.652 14.996,16.165 C14.999,16.104 15,16.047 15,16 C15,15.908 14.981,15.822 14.973,15.732 C15.898,15.542 16.616,15.265 17.165,14.933 L17.166,14.934 C20.74,17.238 24,14 24,14 C20,14 20,11 20,11 L20,10.48 C20.305,10.114 20.5,9.59 20.5,9 C20.5,8.41 20.305,7.886 20,7.52 L20,5.333 C20,3.86 20,0 12,0 C4,0 4,3.86 4,5.333 L4,7.519 L4,7.52 C3.695,7.886 3.5,8.41 3.5,9 C3.5,9.59 3.695,10.114 4,10.48 L4,11 C4,11 4,14 0,14 C0,14 3.26,17.238 6.836,14.934 C7.385,15.265 8.102,15.542 9.027,15.732 C9.019,15.822 9,15.908 9,16 C9,16.047 9.001,16.104 9.004,16.165 C4.707,16.653 2,18.184 2,20 L0.097,31.416 C0.04,31.602 0,31.796 0,32 L0,34 C0,35.104 0.896,36 2,36 L2,40 C2,40 2.997,40.492 6.357,40.786 L7,44 C7,45 4,45 4,46.5 C4,47.328 4.672,48 5.5,48 L9.5,48 C10.328,48 11,47.328 11,46.5 L11,46 L11,44 L11,40.992 C11.327,40.996 11.65,41 12,41 C12.35,41 12.673,40.996 13,40.992 L13,44 L13,46 L13,46.5 C13,47.328 13.672,48 14.5,48 L18.5,48 C19.328,48 20,47.328 20,46.5 C20,45 17,45 17,44 L17.643,40.786 C21.003,40.492 22,40 22,40 L22,36 C23.104,36 24,35.104 24,34 L24,32 C24,31.794 23.96,31.6 23.902,31.412 L22,20 Z" id="Page-1"></path>
        </g>
    </g>
</svg>