<?xml version="1.0" encoding="UTF-8" standalone="no"?>
<svg width="32px" height="52px" viewBox="0 0 32 52" version="1.1" xmlns="http://www.w3.org/2000/svg" xmlns:xlink="http://www.w3.org/1999/xlink">
    <!-- Generator: Sketch 45.1 (43504) - http://www.bohemiancoding.com/sketch -->
    <title>icons/character-alt_base</title>
    <desc>Created with Sketch.</desc>
    <defs></defs>
    <g id="Symbols" stroke="none" stroke-width="1" fill="none" fill-rule="evenodd" fill-opacity="0.75">
        <g id="icons/character-alt_base" fill="#FFFFFF">
            <path d="M30.8398,29.819 C31.6038,31.33 31.0218,33.188 29.5278,33.984 C29.0748,34.227 28.5648,34.356 28.0528,34.356 C26.9158,34.356 25.8748,33.744 25.3218,32.753 L24.7888,31.857 L24.9968,35.894 C25.0258,36.442 24.8278,36.977 24.4498,37.375 C24.0718,37.773 23.5488,37.998 22.9998,37.998 L22.9998,48.889 C23.0608,50.503 21.8188,51.887 20.1968,51.994 C20.1308,51.998 20.0658,52 19.9998,52 C18.4498,52 17.1538,50.81 17.0148,49.275 L16.9978,49.152 C16.9228,50.651 15.7308,51.893 14.1968,51.994 C14.1308,51.998 14.0658,52 13.9998,52 C12.4498,52 11.1538,50.81 11.0148,49.275 L9.5458,37.998 L8.9998,37.998 C8.4508,37.998 7.9278,37.773 7.5498,37.375 C7.1718,36.977 6.9748,36.442 7.0028,35.894 L7.2108,31.856 L6.6778,32.752 C6.1248,33.742 5.0838,34.355 3.9468,34.355 C3.4358,34.355 2.9248,34.226 2.4788,33.986 C0.9788,33.187 0.3968,31.329 1.1598,29.818 L8.4218,14.214 C8.4378,14.18 8.4528,14.148 8.4708,14.116 C9.0748,12.983 10.1848,12.23 11.4418,12.053 C10.6828,10.827 10.1878,9.352 10.0438,7.884 C8.2978,7.455 6.9998,5.876 6.9998,4 C6.9998,1.794 8.7938,0 10.9998,0 C12.1678,0 13.2198,0.503 13.9518,1.303 C14.5878,1.103 15.2768,1 15.9998,1 C16.7228,1 17.4118,1.103 18.0478,1.303 C18.7798,0.503 19.8318,0 20.9998,0 C23.2058,0 24.9998,1.794 24.9998,4 C24.9998,5.876 23.7018,7.455 21.9558,7.884 C21.8128,9.352 21.3178,10.828 20.5578,12.054 C21.8158,12.231 22.9258,12.984 23.5288,14.118 C23.5468,14.15 23.5628,14.181 23.5778,14.215 L30.8398,29.819 Z M21,1.9997 C19.896,1.9997 19,2.8957 19,3.9997 C19,4.0617 19.013,4.1197 19.019,4.1797 C18.284,3.3877 17.212,2.9997 16,2.9997 C14.788,2.9997 13.716,3.3877 12.981,4.1797 C12.987,4.1197 13,4.0617 13,3.9997 C13,2.8957 12.104,1.9997 11,1.9997 C9.896,1.9997 9,2.8957 9,3.9997 C9,5.1037 9.896,5.9997 11,5.9997 C11.456,5.9997 11.872,5.8407 12.209,5.5837 C12.085,6.0057 12,6.4657 12,6.9987 C12,9.7607 13.791,12.9997 16,12.9997 C18.209,12.9997 20,9.7607 20,6.9987 C20,6.4657 19.915,6.0057 19.791,5.5837 C20.128,5.8407 20.544,5.9997 21,5.9997 C22.104,5.9997 23,5.1037 23,3.9997 C23,2.8957 22.104,1.9997 21,1.9997 Z M29.0439,30.6999 L21.7649,15.0579 C21.4069,14.3879 20.7209,14.0119 20.0099,14.0079 L19.9999,13.9989 L19.3669,13.9989 C19.0049,13.9989 18.6479,14.0969 18.3379,14.2839 C17.5589,14.7519 16.7499,14.9989 15.9999,14.9989 C15.2499,14.9989 14.4409,14.7519 13.6619,14.2839 C13.3519,14.0969 12.9949,13.9989 12.6329,13.9989 L11.9999,13.9989 L11.9909,14.0069 C11.2799,14.0109 10.5939,14.3859 10.2349,15.0569 L2.9559,30.6989 C2.6639,31.2479 2.8709,31.9289 3.4189,32.2209 C3.5879,32.3119 3.7699,32.3549 3.9469,32.3549 C4.3499,32.3549 4.7379,32.1379 4.9409,31.7589 L9.6249,23.8929 L8.9999,35.9979 L11.3029,35.9979 L13.0039,49.0649 C13.0389,49.6159 13.5149,50.0339 14.0659,49.9979 C14.6179,49.9619 15.0349,49.4869 14.9999,48.9359 L14.9999,35.9979 L17.3029,35.9979 L19.0039,49.0649 C19.0389,49.6159 19.5149,50.0339 20.0659,49.9979 C20.6179,49.9619 21.0349,49.4869 20.9999,48.9359 L20.9999,35.9979 L22.9999,35.9979 L22.3749,23.8939 L27.0589,31.7599 C27.2619,32.1389 27.6499,32.3559 28.0529,32.3559 C28.2309,32.3559 28.4119,32.3129 28.5809,32.2219 C29.1289,31.9299 29.3359,31.2489 29.0439,30.6999 Z" id="Combined-Shape"></path>
        </g>
    </g>
</svg>