<?xml version="1.0" encoding="UTF-8" standalone="no"?>
<svg width="24px" height="48px" viewBox="0 0 24 48" version="1.1" xmlns="http://www.w3.org/2000/svg" xmlns:xlink="http://www.w3.org/1999/xlink">
    <!-- Generator: Sketch 45 (43475) - http://www.bohemiancoding.com/sketch -->
    <title>icons/character2</title>
    <desc>Created with Sketch.</desc>
    <defs></defs>
    <g id="Symbols" stroke="none" stroke-width="1" fill="none" fill-rule="evenodd">
        <g id="icons/character2">
            <g id="character-ppal">
                <path d="M11,46 C11,47.104 10.104,48 9,48 L8,48 C6.896,48 7,45.104 7,44 L6,39 C6,37.896 6.896,37 8,37 L9,37 C10.104,37 11,37.896 11,39 L11,46 Z" id="Fill-6" fill="#FFC89C"></path>
                <path d="M17,44 C17,45.104 17.104,48 16,48 L15,48 C13.896,48 13,47.104 13,46 L13,39 C13,37.896 13.896,37 15,37 L16,37 C17.104,37 18,37.896 18,39 L17,44 Z" id="Fill-8" fill="#FFC89C"></path>
                <path d="M15,16 C15,17.657 13.658,19 12,19 C10.344,19 9,17.657 9,16 C9,14.343 10.344,13 12,13 C13.658,13 15,14.343 15,16" id="Fill-10" fill="#DFA77E"></path>
                <path d="M19,7 L19,4.333 C19,3.045 17.955,2 16.668,2 L7.334,2 C6.045,2 5,3.045 5,4.333 L5,7 C4.172,7 3.5,7.896 3.5,9 C3.5,10.104 4.172,11 5,11 L5,11.333 C5,12.622 5,16 12,16 C19,16 19,12.622 19,11.333 L19,11 C19.828,11 20.5,10.104 20.5,9 C20.5,7.896 19.828,7 19,7" id="Fill-12" fill="#FFC89C"></path>
                <path d="M5,11.333 L5,11 C4.613,11 4.266,10.8 4,10.48 L4,11 C4,11 4,14 0,14 C0,14 3.26,17.238 6.836,14.934 C5.01,13.83 5,12.156 5,11.333" id="Fill-14" fill="#000000"></path>
                <path d="M19,11.333 L19,11 C19.387,11 19.734,10.8 20,10.48 L20,11 C20,11 20,14 24,14 C24,14 20.74,17.238 17.166,14.934 C18.99,13.83 19,12.156 19,11.333" id="Fill-16" fill="#000000"></path>
                <path d="M3.9995,10.4805 L3.9995,11.0005 L4.9995,11.0005 C4.6135,11.0005 4.2655,10.7995 3.9995,10.4805" id="Fill-18" fill="#000000"></path>
                <path d="M19,7 C19.387,7 19.734,7.2 20,7.52 L20,5.333 C20,3.86 20,0 12,0 C4,0 4,3.86 4,5.333 L4,7.519 C4.266,7.199 4.615,7 5,7 C5,7 6,7 6,10 L7,7 C7,7 14,8 16,4 C16,4 18,4 19,9 L19,7 Z" id="Fill-20" fill="#000000"></path>
                <path d="M10,9 C10,9.553 9.553,10 9,10 C8.447,10 8,9.553 8,9 C8,8.447 8.447,8 9,8 C9.553,8 10,8.447 10,9" id="Fill-22" fill="#372407"></path>
                <path d="M16,9 C16,9.553 15.553,10 15,10 C14.447,10 14,9.553 14,9 C14,8.447 14.447,8 15,8 C15.553,8 16,8.447 16,9" id="Fill-24" fill="#372407"></path>
                <path d="M13,10.999 C13,10.17 12.553,8.999 12,8.999 C11.447,8.999 11,10.17 11,10.999 L11,11 C11,11.553 11.447,12 12,12 C12.553,12 13,11.553 13,11 L13,10.999 Z" id="Fill-26" fill="#ED7CAE"></path>
                <path d="M2,40 C2,40 4,41 12,41 C20,41 22,40 22,40 L22,32 L24,32 L22,20 C22,18.182 19.287,16.649 14.984,16.163 C14.898,17.743 13.602,19 12,19 C10.398,19 9.104,17.743 9.018,16.163 C4.713,16.649 2,18.182 2,20 L0.014,31.915 C0.063,31.68 0.344,31 2.001,31 L2,40 Z" id="Fill-28" fill="#494DF4"></path>
                <path d="M5,33 C5,31.896 5,30 3,30 L2,30 C0.896,30 0,30.896 0,32 L0,34 C0,35.104 0.896,36 2,36 C3.105,36 4,35.104 4,34 C4,34 5,34 5,33" id="Fill-30" fill="#FFC89C"></path>
                <path d="M19,33 C19,31.896 19,30 21,30 L22,30 C23.104,30 24,30.896 24,32 L24,34 C24,35.104 23.104,36 22,36 C20.895,36 20,35.104 20,34 C20,34 19,34 19,33" id="Fill-32" fill="#FFC89C"></path>
                <path d="M9.0166,16.1631 C7.4476,16.3411 6.0916,16.6581 4.9996,17.0771 L4.9996,19.0001 C4.9996,20.1041 5.8956,21.0001 6.9996,21.0001 L9.9996,21.0001 C11.1046,21.0001 11.9996,20.1041 11.9996,19.0001 C10.3986,19.0001 9.1026,17.7431 9.0166,16.1631" id="Fill-34" fill="#FFFFFF"></path>
                <path d="M14.9834,16.1631 C14.8974,17.7431 13.6014,19.0001 12.0004,19.0001 C12.0004,20.1041 12.8954,21.0001 14.0004,21.0001 L17.0004,21.0001 C18.1044,21.0001 19.0004,20.1041 19.0004,19.0001 L19.0004,17.0771 C17.9084,16.6581 16.5524,16.3411 14.9834,16.1631" id="Fill-36" fill="#FFFFFF"></path>
                <path d="M14,15 C14,16.104 13.104,17 12,17 C10.896,17 10,16.104 10,15 C10,13.896 10.896,13 12,13 C13.104,13 14,13.896 14,15" id="Fill-38" fill="#FFC89C"></path>
                <path d="M12,15 C13.104,15 14,14.104 14,13 L10,13 C10,14.104 10.896,15 12,15" id="Fill-40" fill="#F07662"></path>
                <path d="M7,44 C7,45 4,45 4,46.5 C4,47.328 4.672,48 5.5,48 L9.5,48 C10.328,48 11,47.328 11,46.5 L11,44 L7,44 Z" id="Fill-42" fill="#583709"></path>
                <path d="M17,44 C17,45 20,45 20,46.5 C20,47.328 19.328,48 18.5,48 L14.5,48 C13.672,48 13,47.328 13,46.5 L13,44 L17,44 Z" id="Fill-44" fill="#583709"></path>
            </g>
        </g>
    </g>
</svg>