<?xml version="1.0" encoding="UTF-8" standalone="no"?>
<svg width="32px" height="52px" viewBox="0 0 32 52" version="1.1" xmlns="http://www.w3.org/2000/svg" xmlns:xlink="http://www.w3.org/1999/xlink">
    <!-- Generator: Sketch 45.1 (43504) - http://www.bohemiancoding.com/sketch -->
    <title>icons/character2-alt</title>
    <desc>Created with Sketch.</desc>
    <defs></defs>
    <g id="Symbols" stroke="none" stroke-width="1" fill="none" fill-rule="evenodd">
        <g id="icons/character2-alt" fill="#494DF4">
            <path d="M21,1.9997 C19.896,1.9997 19,2.8957 19,3.9997 C19,4.0617 19.013,4.1197 19.019,4.1797 C18.284,3.3877 17.212,2.9997 16,2.9997 C14.788,2.9997 13.716,3.3877 12.981,4.1797 C12.987,4.1197 13,4.0617 13,3.9997 C13,2.8957 12.104,1.9997 11,1.9997 C9.896,1.9997 9,2.8957 9,3.9997 C9,5.1037 9.896,5.9997 11,5.9997 C11.456,5.9997 11.872,5.8407 12.209,5.5837 C12.085,6.0057 12,6.4657 12,6.9987 C12,9.7607 13.791,12.9997 16,12.9997 C18.209,12.9997 20,9.7607 20,6.9987 C20,6.4657 19.915,6.0057 19.791,5.5837 C20.128,5.8407 20.544,5.9997 21,5.9997 C22.104,5.9997 23,5.1037 23,3.9997 C23,2.8957 22.104,1.9997 21,1.9997" id="Fill-4"></path>
            <path d="M29.0439,30.6999 L21.7649,15.0579 C21.4069,14.3879 20.7209,14.0119 20.0099,14.0079 L19.9999,13.9989 L19.3669,13.9989 C19.0049,13.9989 18.6479,14.0969 18.3379,14.2839 C17.5589,14.7519 16.7499,14.9989 15.9999,14.9989 C15.2499,14.9989 14.4409,14.7519 13.6619,14.2839 C13.3519,14.0969 12.9949,13.9989 12.6329,13.9989 L11.9999,13.9989 L11.9909,14.0069 C11.2799,14.0109 10.5939,14.3859 10.2349,15.0569 L2.9559,30.6989 C2.6639,31.2479 2.8709,31.9289 3.4189,32.2209 C3.5879,32.3119 3.7699,32.3549 3.9469,32.3549 C4.3499,32.3549 4.7379,32.1379 4.9409,31.7589 L9.6249,23.8929 L8.9999,35.9979 L11.3029,35.9979 L13.0039,49.0649 C13.0389,49.6159 13.5149,50.0339 14.0659,49.9979 C14.6179,49.9619 15.0349,49.4869 14.9999,48.9359 L14.9999,35.9979 L17.3029,35.9979 L19.0039,49.0649 C19.0389,49.6159 19.5149,50.0339 20.0659,49.9979 C20.6179,49.9619 21.0349,49.4869 20.9999,48.9359 L20.9999,35.9979 L22.9999,35.9979 L22.3749,23.8939 L27.0589,31.7599 C27.2619,32.1389 27.6499,32.3559 28.0529,32.3559 C28.2309,32.3559 28.4119,32.3129 28.5809,32.2219 C29.1289,31.9299 29.3359,31.2489 29.0439,30.6999" id="Fill-6"></path>
        </g>
    </g>
</svg>