<?xml version="1.0" encoding="UTF-8" standalone="no"?>
<svg width="32px" height="24px" viewBox="0 0 32 24" version="1.1" xmlns="http://www.w3.org/2000/svg" xmlns:xlink="http://www.w3.org/1999/xlink">
    <!-- Generator: Sketch 45.1 (43504) - http://www.bohemiancoding.com/sketch -->
    <title>icons/characters_mini</title>
    <desc>Created with Sketch.</desc>
    <defs></defs>
    <g id="Symbols" stroke="none" stroke-width="1" fill="none" fill-rule="evenodd">
        <g id="icons/characters_mini">
            <path d="M9.5,0 C10.053,0 10.5,0.447 10.5,1 C10.5,1.553 10.053,2 9.5,2 C9.271,2 9.064,1.92 8.896,1.792 C8.957,2.003 9,2.232 9,2.5 C9,3.881 8.104,5.5 7,5.5 C5.896,5.5 5,3.881 5,2.5 C5,2.232 5.043,2.003 5.104,1.792 C4.936,1.92 4.729,2 4.5,2 C3.947,2 3.5,1.553 3.5,1 C3.5,0.447 3.947,0 4.5,0 C5.053,0 5.5,0.447 5.5,1 C5.5,1.031 5.494,1.061 5.49,1.09 C5.857,0.693 6.395,0.5 7,0.5 C7.605,0.5 8.143,0.693 8.51,1.09 C8.506,1.061 8.5,1.031 8.5,1 C8.5,0.447 8.947,0 9.5,0 Z" id="Fill-1" fill="#F02849"></path>
            <path d="M13.5215,14.3496 L9.8825,6.5296 C9.7035,6.1936 9.3605,6.0056 9.0045,6.0036 L9.0005,5.9996 L8.6835,5.9996 C8.5015,5.9996 8.3245,6.0486 8.1685,6.1426 C7.7795,6.3756 7.3755,6.4996 7.0005,6.4996 C6.6255,6.4996 6.2205,6.3756 5.8315,6.1426 C5.6755,6.0486 5.4985,5.9996 5.3165,5.9996 L5.0005,5.9996 L4.9965,6.0036 C4.6405,6.0056 4.2965,6.1936 4.1175,6.5296 L0.4785,14.3496 C0.3325,14.6236 0.4355,14.9646 0.7085,15.1116 C0.7935,15.1566 0.8845,15.1776 0.9735,15.1776 C1.1745,15.1776 1.3695,15.0696 1.4705,14.8786 L3.8125,10.9476 L3.5005,16.9986 L4.6515,16.9986 L5.5015,23.5336 C5.5195,23.8086 5.7575,24.0176 6.0335,23.9986 C6.3085,23.9806 6.5175,23.7446 6.5005,23.4686 L6.5005,16.9986 L7.6515,16.9986 L8.5015,23.5336 C8.5195,23.8086 8.7575,24.0176 9.0335,23.9986 C9.3085,23.9806 9.5175,23.7446 9.5005,23.4686 L9.5005,16.9986 L10.5005,16.9986 L10.1875,10.9476 L12.5295,14.8796 C12.6305,15.0706 12.8255,15.1776 13.0265,15.1776 C13.1155,15.1776 13.2065,15.1566 13.2915,15.1116 C13.5645,14.9646 13.6675,14.6246 13.5215,14.3496" id="Fill-3" fill="#F02849"></path>
            <g id="Group" transform="translate(18.000000, 0.000000)" fill="#494DF4">
                <path d="M4.5,0 C5.053,0 5.5,0.447 5.5,1 C5.5,1.031 5.494,1.061 5.49,1.09 C5.857,0.693 6.395,0.5 7,0.5 C7.605,0.5 8.143,0.693 8.51,1.09 C8.506,1.061 8.5,1.031 8.5,1 C8.5,0.447 8.947,0 9.5,0 C10.053,0 10.5,0.447 10.5,1 C10.5,1.553 10.053,2 9.5,2 C9.271,2 9.064,1.92 8.896,1.792 C8.957,2.003 9,2.232 9,2.5 C9,3.881 8.104,5.5 7,5.5 C5.896,5.5 5,3.881 5,2.5 C5,2.232 5.043,2.003 5.104,1.792 C4.936,1.92 4.729,2 4.5,2 C3.947,2 3.5,1.553 3.5,1 C3.5,0.447 3.947,0 4.5,0" id="Fill-5"></path>
                <path d="M0.4785,14.3496 L4.1175,6.5296 C4.2965,6.1936 4.6395,6.0056 4.9955,6.0036 L4.9995,5.9996 L5.3165,5.9996 C5.4985,5.9996 5.6755,6.0486 5.8315,6.1426 C6.2205,6.3756 6.6245,6.4996 6.9995,6.4996 C7.3745,6.4996 7.7795,6.3756 8.1685,6.1426 C8.3245,6.0486 8.5015,5.9996 8.6835,5.9996 L8.9995,5.9996 L9.0035,6.0036 C9.3595,6.0056 9.7035,6.1936 9.8825,6.5296 L13.5215,14.3496 C13.6675,14.6236 13.5645,14.9646 13.2915,15.1116 C13.2065,15.1566 13.1155,15.1776 13.0265,15.1776 C12.8255,15.1776 12.6305,15.0696 12.5295,14.8786 L10.1875,10.9476 L10.4995,16.9986 L9.3485,16.9986 L8.4985,23.5336 C8.4805,23.8086 8.2425,24.0176 7.9665,23.9986 C7.6915,23.9806 7.4825,23.7446 7.4995,23.4686 L7.4995,16.9986 L6.3485,16.9986 L5.4985,23.5336 C5.4805,23.8086 5.2425,24.0176 4.9665,23.9986 C4.6915,23.9806 4.4825,23.7446 4.4995,23.4686 L4.4995,16.9986 L3.4995,16.9986 L3.8125,10.9476 L1.4705,14.8796 C1.3695,15.0706 1.1745,15.1776 0.9735,15.1776 C0.8845,15.1776 0.7935,15.1566 0.7085,15.1116 C0.4355,14.9646 0.3325,14.6246 0.4785,14.3496" id="Fill-7"></path>
            </g>
        </g>
    </g>
</svg>