<?xml version="1.0" encoding="UTF-8" standalone="no"?>
<svg width="28px" height="52px" viewBox="0 0 28 52" version="1.1" xmlns="http://www.w3.org/2000/svg" xmlns:xlink="http://www.w3.org/1999/xlink">
    <!-- Generator: Sketch 45 (43475) - http://www.bohemiancoding.com/sketch -->
    <title>icons/character2_map</title>
    <desc>Created with Sketch.</desc>
    <defs>
        <polygon id="path-1" points="0 52 0 0 28 0 28 52"></polygon>
    </defs>
    <g id="Symbols" stroke="none" stroke-width="1" fill="none" fill-rule="evenodd">
        <g id="icons/character2_map">
            <g id="character-ppal">
                <path d="M24,22 C24,20.184 21.292,18.652 16.996,18.165 C16.999,18.104 17,18.047 17,18 C17,17.908 16.981,17.822 16.973,17.732 C17.898,17.542 18.616,17.265 19.165,16.933 L19.166,16.934 C22.74,19.238 26,16 26,16 C22,16 22,13 22,13 L22,12.48 C22.305,12.114 22.5,11.59 22.5,11 C22.5,10.41 22.305,9.886 22,9.52 L22,7.333 C22,5.86 22,2 14,2 C6,2 6,5.86 6,7.333 L6,9.519 L6,9.52 C5.695,9.886 5.5,10.41 5.5,11 C5.5,11.59 5.695,12.114 6,12.48 L6,13 C6,13 6,16 2,16 C2,16 5.26,19.238 8.836,16.934 C9.385,17.265 10.102,17.542 11.027,17.732 C11.019,17.822 11,17.908 11,18 C11,18.047 11.001,18.104 11.004,18.165 C6.707,18.653 4,20.184 4,22 L2.097,33.416 C2.04,33.602 2,33.796 2,34 L2,36 C2,37.104 2.896,38 4,38 L4,42 C4,42 4.997,42.492 8.357,42.786 L9,46 C9,47 6,47 6,48.5 C6,49.328 6.672,50 7.5,50 L11.5,50 C12.328,50 13,49.328 13,48.5 L13,48 L13,46 L13,42.992 C13.327,42.996 13.65,43 14,43 C14.35,43 14.673,42.996 15,42.992 L15,46 L15,48 L15,48.5 C15,49.328 15.672,50 16.5,50 L20.5,50 C21.328,50 22,49.328 22,48.5 C22,47 19,47 19,46 L19.643,42.786 C23.003,42.492 24,42 24,42 L24,38 C25.104,38 26,37.104 26,36 L26,34 C26,33.794 25.96,33.6 25.902,33.412 L24,22 Z" id="Fill-1" fill="#FFFFFF"></path>
                <g id="Group-5">
                    <mask id="mask-2" fill="white">
                        <use xlink:href="#path-1"></use>
                    </mask>
                    <g id="Clip-4"></g>
                    <path d="M4,7.333 L4,8.934 C3.674,9.552 3.5,10.263 3.5,11 C3.5,11.729 3.67,12.431 3.988,13.043 C3.873,13.661 3.173,14 2,14 C1.19,14 0.46,14.488 0.151,15.237 C-0.158,15.986 0.016,16.848 0.591,17.419 C0.745,17.572 1.708,18.492 3.194,19.132 C2.461,19.91 2.051,20.812 2.004,21.808 L0.143,32.975 C0.047,33.327 -4.06575815e-20,33.664 -4.06575815e-20,34 L-4.06575815e-20,36 C-4.06575815e-20,37.478 0.805,38.771 2,39.463 L2,42 C2,42.762 2.432,43.456 3.115,43.793 C3.377,43.923 4.331,44.316 6.685,44.618 L6.798,45.188 C5.787,45.608 4,46.453 4,48.5 C4,50.43 5.57,52 7.5,52 L11.5,52 C12.479,52 13.364,51.597 14,50.947 C14.636,51.597 15.521,52 16.5,52 L20.5,52 C22.43,52 24,50.43 24,48.5 C24,46.453 22.214,45.608 21.202,45.188 L21.315,44.618 C23.669,44.316 24.622,43.923 24.886,43.793 C25.568,43.456 26,42.762 26,42 L26,39.463 C27.194,38.771 28,37.478 28,36 L28,34 C28,33.662 27.953,33.323 27.856,32.97 L25.995,21.808 C25.949,20.811 25.539,19.91 24.806,19.132 C26.293,18.491 27.255,17.572 27.409,17.419 C27.984,16.848 28.158,15.986 27.849,15.237 C27.54,14.488 26.811,14 26,14 C24.275,14 24.038,13.271 24.005,13.057 C24.327,12.441 24.5,11.734 24.5,11 C24.5,10.262 24.325,9.551 24,8.934 L24,7.333 C24,2.467 20.636,0 14,0 C7.364,0 4,2.467 4,7.333 Z" id="Fill-3" fill-opacity="0.5" fill="#FFFFFF" mask="url(#mask-2)"></path>
                </g>
                <path d="M13,48 C13,49.104 12.104,50 11,50 L10,50 C8.896,50 9,47.104 9,46 L8,41 C8,39.896 8.896,39 10,39 L11,39 C12.104,39 13,39.896 13,41 L13,48 Z" id="Fill-6" fill="#FFC89C"></path>
                <path d="M19,46 C19,47.104 19.104,50 18,50 L17,50 C15.896,50 15,49.104 15,48 L15,41 C15,39.896 15.896,39 17,39 L18,39 C19.104,39 20,39.896 20,41 L19,46 Z" id="Fill-8" fill="#FFC89C"></path>
                <path d="M17,18 C17,19.657 15.658,21 14,21 C12.344,21 11,19.657 11,18 C11,16.343 12.344,15 14,15 C15.658,15 17,16.343 17,18" id="Fill-10" fill="#DFA77E"></path>
                <path d="M21,9 L21,6.333 C21,5.045 19.955,4 18.668,4 L9.334,4 C8.045,4 7,5.045 7,6.333 L7,9 C6.172,9 5.5,9.896 5.5,11 C5.5,12.104 6.172,13 7,13 L7,13.333 C7,14.622 7,18 14,18 C21,18 21,14.622 21,13.333 L21,13 C21.828,13 22.5,12.104 22.5,11 C22.5,9.896 21.828,9 21,9" id="Fill-12" fill="#FFC89C"></path>
                <path d="M7,13 C6.613,13 6.266,12.8 6,12.48 L6,13 C6,13 6,16 2,16 C2,16 5.26,19.238 8.836,16.934 C7.01,15.83 7,14.156 7,13.333 L7,13 Z" id="Fill-14" fill="#000000"></path>
                <path d="M21,13.333 L21,13 C21.387,13 21.734,12.8 22,12.48 L22,13 C22,13 22,16 26,16 C26,16 22.74,19.238 19.166,16.934 C20.99,15.83 21,14.156 21,13.333" id="Fill-16" fill="#000000"></path>
                <path d="M21,9 C21.387,9 21.734,9.2 22,9.52 L22,7.333 C22,5.86 22,2 14,2 C6,2 6,5.86 6,7.333 L6,9.519 C6.266,9.199 6.615,9 7,9 C7,9 8,9 8,12 L9,9 C9,9 16,10 18,6 C18,6 20,6 21,11 L21,9 Z" id="Fill-20" fill="#000000"></path>
                <path d="M12,11 C12,11.553 11.553,12 11,12 C10.447,12 10,11.553 10,11 C10,10.447 10.447,10 11,10 C11.553,10 12,10.447 12,11" id="Fill-22" fill="#372407"></path>
                <path d="M18,11 C18,11.553 17.553,12 17,12 C16.447,12 16,11.553 16,11 C16,10.447 16.447,10 17,10 C17.553,10 18,10.447 18,11" id="Fill-24" fill="#372407"></path>
                <path d="M15,12.999 C15,12.17 14.553,10.999 14,10.999 C13.447,10.999 13,12.17 13,12.999 L13,13 C13,13.553 13.447,14 14,14 C14.553,14 15,13.553 15,13 L15,12.999 Z" id="Fill-26" fill="#ED7CAE"></path>
                <path d="M4,42 C4,42 6,43 14,43 C22,43 24,42 24,42 L24,34 L26,34 L24,22 C24,20.182 21.287,18.649 16.984,18.163 C16.898,19.743 15.602,21 14,21 C12.398,21 11.104,19.743 11.018,18.163 C6.713,18.649 4,20.182 4,22 L2.014,33.915 C2.063,33.68 2.344,33 4.001,33 L4,42 Z" id="Fill-28" fill="#494DF4"></path>
                <path d="M7,35 C7,33.896 7,32 5,32 L4,32 C2.896,32 2,32.896 2,34 L2,36 C2,37.104 2.896,38 4,38 C5.105,38 6,37.104 6,36 C6,36 7,36 7,35" id="Fill-30" fill="#FFC89C"></path>
                <path d="M21,35 C21,33.896 21,32 23,32 L24,32 C25.104,32 26,32.896 26,34 L26,36 C26,37.104 25.104,38 24,38 C22.895,38 22,37.104 22,36 C22,36 21,36 21,35" id="Fill-32" fill="#FFC89C"></path>
                <path d="M11.0166,18.1631 C9.4476,18.3411 8.0916,18.6581 6.9996,19.0771 L6.9996,21.0001 C6.9996,22.1041 7.8956,23.0001 8.9996,23.0001 L11.9996,23.0001 C13.1046,23.0001 13.9996,22.1041 13.9996,21.0001 C12.3986,21.0001 11.1026,19.7431 11.0166,18.1631" id="Fill-34" fill="#FFFFFF"></path>
                <path d="M16.9834,18.1631 C16.8974,19.7431 15.6014,21.0001 14.0004,21.0001 C14.0004,22.1041 14.8954,23.0001 16.0004,23.0001 L19.0004,23.0001 C20.1044,23.0001 21.0004,22.1041 21.0004,21.0001 L21.0004,19.0771 C19.9084,18.6581 18.5524,18.3411 16.9834,18.1631" id="Fill-36" fill="#FFFFFF"></path>
                <path d="M16,17 C16,18.104 15.104,19 14,19 C12.896,19 12,18.104 12,17 C12,15.896 12.896,15 14,15 C15.104,15 16,15.896 16,17" id="Fill-38" fill="#FFC89C"></path>
                <path d="M14,17 C15.104,17 16,16.104 16,15 L12,15 C12,16.104 12.896,17 14,17" id="Fill-40" fill="#F07662"></path>
                <path d="M9,46 C9,47 6,47 6,48.5 C6,49.328 6.672,50 7.5,50 L11.5,50 C12.328,50 13,49.328 13,48.5 L13,46 L9,46 Z" id="Fill-42" fill="#583709"></path>
                <path d="M19,46 C19,47 22,47 22,48.5 C22,49.328 21.328,50 20.5,50 L16.5,50 C15.672,50 15,49.328 15,48.5 L15,46 L19,46 Z" id="Fill-44" fill="#583709"></path>
            </g>
        </g>
    </g>
</svg>