<?xml version="1.0" encoding="UTF-8" standalone="no"?>
<svg width="20px" height="20px" viewBox="0 0 20 20" version="1.1" xmlns="http://www.w3.org/2000/svg" xmlns:xlink="http://www.w3.org/1999/xlink">
    <!-- Generator: Sketch 45 (43475) - http://www.bohemiancoding.com/sketch -->
    <title>icons/globe_amaranth</title>
    <desc>Created with Sketch.</desc>
    <defs></defs>
    <g id="Symbols" stroke="none" stroke-width="1" fill="none" fill-rule="evenodd">
        <g id="icons/globe_amaranth" fill="#F02849">
            <path d="M11.1055,17.4092 C11.2525,16.5512 11.6095,15.5002 12.5005,15.5002 C12.5005,15.5002 14.0005,15.5002 14.0005,14.0002 L14.0005,12.5002 C14.0005,12.5002 12.5005,12.5002 12.5005,11.0002 L9.5005,11.0002 C8.0005,11.0002 8.5005,10.0002 8.5005,10.0002 C7.0005,10.0002 7.0005,8.5002 7.0005,8.5002 L7.0005,7.0002 L8.5005,7.0002 C8.5005,7.0002 10.0005,7.0002 10.0005,5.5002 C10.0005,4.0002 12.0005,4.0002 12.0005,4.0002 L12.0005,2.7792 C13.4265,3.1752 14.6675,3.9962 15.6185,5.0772 C15.2555,5.2272 14.9995,5.5832 14.9995,6.0002 L14.9995,7.0002 C14.9995,7.5532 15.4475,8.0002 15.9995,8.0002 L16.9995,8.0002 C17.0685,8.0002 17.1285,7.9742 17.1935,7.9612 C17.3785,8.6122 17.5005,9.2902 17.5005,10.0002 C17.5005,13.7592 14.7175,16.8722 11.1055,17.4092 L11.1055,17.4092 Z M9.5005,17.0002 L9.5005,17.4742 C5.5975,17.2152 2.5005,13.9672 2.5005,10.0002 C2.5005,8.3192 3.0625,6.7712 4.0005,5.5192 L4.0005,8.5002 C4.0005,8.5002 4.0005,10.0002 5.5005,10.0002 C7.0005,10.0002 7.0005,11.5002 7.0005,11.5002 C8.0005,12.0002 8.0005,14.0002 8.0005,14.0002 C8.0005,14.0002 8.0005,15.5002 9.5005,15.5002 L9.5005,17.0002 Z M10.0005,1.0002 C5.0295,1.0002 1.0005,5.0302 1.0005,10.0002 C1.0005,14.9702 5.0295,19.0002 10.0005,19.0002 C14.9705,19.0002 19.0005,14.9702 19.0005,10.0002 C19.0005,5.0302 14.9705,1.0002 10.0005,1.0002 L10.0005,1.0002 Z" id="Fill-3"></path>
        </g>
    </g>
</svg>