<?xml version="1.0" encoding="UTF-8" standalone="no"?>
<svg width="20px" height="20px" viewBox="0 0 20 20" version="1.1" xmlns="http://www.w3.org/2000/svg" xmlns:xlink="http://www.w3.org/1999/xlink">
    <!-- Generator: Sketch 45.1 (43504) - http://www.bohemiancoding.com/sketch -->
    <title>icons/hide</title>
    <desc>Created with Sketch.</desc>
    <defs></defs>
    <g id="Symbols" stroke="none" stroke-width="1" fill="none" fill-rule="evenodd">
        <g id="icons/hide">
            <polygon id="Fill-3" fill="#F07662" points="4.4404 3 3.0004 4.44 15.5594 17 17.0004 15.56"></polygon>
            <g id="Group-8" transform="translate(2.000000, 6.000000)" fill="#999999">
                <path d="M8.1323,6.9863 C8.0873,6.9883 8.0453,7.0003 7.9993,7.0003 C6.3423,7.0003 4.9993,5.6563 4.9993,4.0003 C4.9993,3.9553 5.0103,3.9123 5.0123,3.8673 L2.6453,1.5003 C1.5743,2.1643 0.6633,3.0083 0.0003,4.0003 C1.5993,6.3883 4.5793,8.0003 7.9983,8.0003 C8.3653,8.0003 8.7253,7.9723 9.0823,7.9363 L8.1323,6.9863 Z" id="Fill-4"></path>
                <path d="M7.8677,1.0137 C7.9127,1.0117 7.9547,0.9997 7.9997,0.9997 C9.6567,0.9997 10.9997,2.3437 10.9997,3.9997 C10.9997,4.0447 10.9887,4.0867 10.9867,4.1317 L13.3537,6.4997 C14.4257,5.8357 15.3367,4.9907 15.9997,3.9997 C14.3997,1.6117 11.4197,-0.0003 7.9977,-0.0003 C7.6317,-0.0003 7.2727,0.0277 6.9177,0.0637 L7.8677,1.0137 Z" id="Fill-6"></path>
            </g>
        </g>
    </g>
</svg>