<?xml version="1.0" encoding="UTF-8" standalone="no"?>
<svg width="20px" height="20px" viewBox="0 0 20 20" version="1.1" xmlns="http://www.w3.org/2000/svg" xmlns:xlink="http://www.w3.org/1999/xlink">
    <!-- Generator: Sketch 45.1 (43504) - http://www.bohemiancoding.com/sketch -->
    <title>icons/link-ext</title>
    <desc>Created with Sketch.</desc>
    <defs></defs>
    <g id="Symbols" stroke="none" stroke-width="1" fill="none" fill-rule="evenodd">
        <g id="icons/link-ext" fill="#FFFFFF">
            <g id="Group-2" transform="translate(4.000000, 4.000000)">
                <path d="M11.4523,7 L10.4563,7 C10.1573,7 9.9583,7.2 9.9583,7.5 L9.9583,9.75 C9.9583,9.9 9.8593,10 9.7093,10 L2.2403,10 C2.0913,10 1.9913,9.9 1.9913,9.75 L1.9913,2.25 C1.9913,2.1 2.0913,2 2.2403,2 L4.4813,2 C4.7803,2 4.9793,1.8 4.9793,1.5 L4.9793,0.5 C4.9793,0.2 4.7803,0 4.4813,0 L0.4983,0 C0.1993,0 0.0003,0.2 0.0003,0.5 L0.0003,11.5 C0.0003,11.8 0.1993,12 0.4983,12 L11.4523,12 C11.7513,12 11.9503,11.8 11.9503,11.5 L11.9503,7.5 C11.9503,7.2 11.7513,7 11.4523,7" id="Fill-1"></path>
                <path d="M11.4523,0 L7.4693,0 C7.1703,0 6.9713,0.2 6.9713,0.5 L6.9713,1.5 C6.9713,1.8 7.1703,2 7.4693,2 L7.9673,2 C8.1663,2 8.3153,2.25 8.1663,2.45 L4.1823,6.45 C3.9833,6.65 3.9833,6.95 4.1823,7.15 L4.8793,7.85 C5.0793,8.05 5.3773,8.05 5.5763,7.85 L9.5603,3.85 C9.7093,3.7 10.0083,3.8 10.0083,4.05 L10.0083,4.55 C10.0083,4.85 10.2073,5.05 10.5063,5.05 L11.5023,5.05 C11.8013,5.05 12.0003,4.85 12.0003,4.55 L12.0003,0.55 C11.9503,0.2 11.7513,0 11.4523,0" id="Fill-3"></path>
            </g>
        </g>
    </g>
</svg>