<?xml version="1.0" encoding="UTF-8" standalone="no"?>
<svg width="80px" height="80px" viewBox="0 0 80 80" version="1.1" xmlns="http://www.w3.org/2000/svg" xmlns:xlink="http://www.w3.org/1999/xlink">
    <!-- Generator: Sketch 45 (43475) - http://www.bohemiancoding.com/sketch -->
    <title>Logos/AXA_logo</title>
    <desc>Created with Sketch.</desc>
    <defs></defs>
    <g id="Symbols" stroke="none" stroke-width="1" fill="none" fill-rule="evenodd">
        <g id="Logos/AXA_logo">
            <g id="Logo">
                <polygon id="Fill-1" fill="#00008F" points="0 80 80 80 80 0 0 0"></polygon>
                <polygon id="Fill-2" fill="#FF1721" points="75.502741 0 45 40 49.5908544 40 80 0"></polygon>
                <path d="M34.0611146,67.0136922 L36.2887904,63.9660057 C36.0869221,63.7440982 34.8258391,59.9598678 34.8258391,59.9598678 L32.6741609,62.7384325 L34.0611146,67.0136922 Z M21.8563965,48.2341832 C20.9895503,50.0967894 15.8739709,56.2889518 15.8739709,56.2889518 L23.9772008,56.2889518 C23.9772008,56.2889518 22.409753,51.48017 22.1342622,50.3966006 C21.9133946,49.5349386 21.9727676,48.4230406 21.9727676,48.2837583 C21.9727676,48.1869688 21.9537682,48.0311615 21.8563965,48.2341832 L21.8563965,48.2341832 Z M52.9987334,48.2341832 C52.1271374,50.0967894 47.0068081,56.2889518 47.0068081,56.2889518 L55.1147878,56.2889518 C55.1147878,56.2889518 53.5449652,51.48017 53.2694744,50.3966006 C53.0533566,49.5349386 53.1103547,48.4230406 53.1103547,48.2837583 C53.1103547,48.1869688 53.0937302,48.0311615 52.9987334,48.2341832 L52.9987334,48.2341832 Z M62.009183,57.516525 C63.419886,61.4494806 66.3386637,71.6855524 67.5,72.5 L59.8408803,72.5 C59.8408803,72.5 59.819506,70.9891407 59.4870171,69.8135033 C59.1521533,68.6449481 56.3829956,59.7922568 56.3829956,59.7922568 L44.2281507,59.7922568 L42.3234642,62.4905571 C42.3234642,62.4905571 44.6152628,69.6270066 44.760133,69.983475 C45.0023749,70.6090652 46.0995883,72.5 46.0995883,72.5 L38.7658328,72.5 C38.7658328,72.5 38.5782141,71.4117092 38.5093414,70.9560907 C38.4523433,70.5925401 37.8134896,68.5812087 37.8134896,68.5812087 C37.8134896,68.5812087 36.151045,70.3942398 35.6974351,71.2322946 C35.2390754,72.0679887 35.039582,72.5 35.039582,72.5 L29.3017733,72.5 C29.3017733,72.5 29.1117796,71.4117092 29.0429069,70.9560907 C28.981159,70.5925401 28.2758075,68.4206799 28.2758075,68.4206799 C28.2758075,68.4206799 26.6751108,70.3611898 26.2167511,71.1921624 C25.7655161,72.0349386 25.5683977,72.5 25.5683977,72.5 L19.8947118,72.5 C19.8947118,72.5 21.4954085,70.9844193 22.0558898,70.3328612 C23.0058581,69.2233239 26.5231159,64.6529745 26.5231159,64.6529745 L25.1124129,59.7922568 L13.0525649,59.7922568 C13.0525649,59.7922568 6.17479417,68.7842304 5.9040532,69.0604344 C5.62618746,69.3271955 3.6241292,72.1860246 3.58138062,72.5 L0,72.5 L0,70.2407932 C0.0688727042,70.167611 0.116371121,70.1203966 0.14249525,70.1038716 C0.254116529,70.0188857 5.35307156,63.720491 10.0459151,57.516525 C14.2590247,52.1033994 18.210893,46.8366383 18.5576314,46.3338055 C19.3936035,45.1180359 20.609563,42.5 20.609563,42.5 L26.8437302,42.5 C26.8437302,42.5 27.0384737,44.9102927 27.2189677,45.4957507 C27.3804623,46.0127479 31.1803357,58.4017941 31.2634579,58.5339943 L33.3700127,55.8640227 L29.7743825,44.8772427 C29.7743825,44.8772427 28.9407853,42.8116147 28.6652945,42.5 L35.9491767,42.5 C35.9491767,42.5 35.8898037,43.5623229 36.1890437,44.4664778 C36.4835339,45.3753541 38.041482,50.9773371 38.041482,50.9773371 C38.041482,50.9773371 43.0121913,44.7851747 43.3043065,44.3389991 C43.8505383,43.595373 43.9099113,42.5 43.9099113,42.5 L49.9873338,42.5 C49.9873338,42.5 48.871121,43.3073654 46.9308106,45.7577904 C46.2753325,46.5840415 39.8582964,54.674221 39.8582964,54.674221 C39.8582964,54.674221 40.4235275,56.5698772 40.6966434,57.516525 C40.7631412,57.7880076 40.8201393,57.9721435 40.8201393,57.9910293 C40.8201393,57.9957507 40.9578847,57.8234183 41.2072514,57.516525 C42.8601963,55.4320113 50.3815706,45.6232295 50.8351805,44.7898961 C51.2080431,44.1123702 51.7424003,43.3404155 52.0653895,42.5 L57.9813173,42.5 C57.9813173,42.5 58.1214376,44.2540132 58.3019316,44.7426818 L62.009183,57.516525 Z" id="Fill-3" fill="#FFFFFF"></path>
            </g>
        </g>
    </g>
</svg>
